# xmcd
#
# Track frame offsets:
#	150
#	16326
#	31311
#	53715
#	71329
#	90552
#	116182
#	133141
#	157151
#	183721
#
# Disc length: 2677 seconds
#
# Revision: 1
# Processed by: cddbd v1.4PL0 Copyright (c) Steve Scherf et al.
# Submitted via: audiograbber 1.82.02
#
DISCID=890a730a
DTITLE=Rockin' Jimmy Crimmins - Keepin' It Real
DYEAR=2003
DGENRE=Blues
TTITLE0=Makin' Such a Fuss
TTITLE1=Footsteps
TTITLE2=Deep Blue Sea
TTITLE3=Evil Mood
TTITLE4=Educated Fool
TTITLE5=In This World Without You
TTITLE6=That Woman
TTITLE7=Come Home
TTITLE8=Baby Don't You Leave Me
TTITLE9=Mr. Friendly
EXTD=
EXTT0=
EXTT1=
EXTT2=
EXTT3=
EXTT4=
EXTT5=
EXTT6=
EXTT7=
EXTT8=
EXTT9=
PLAYORDER=
